<mxfile host="app.diagrams.net" modified="2023-08-03T02:43:16.147Z" agent="Mozilla/5.0 (Macintosh; Intel Mac OS X 10_15_7) AppleWebKit/605.1.15 (KHTML, like Gecko) Version/16.6 Safari/605.1.15" version="21.6.6" etag="Ve-5n5WNwXyXmfBNvbEY" type="github">
  <diagram name="Page-1" id="5cLx1xzvfqP6HJdFvY--">
    <mxGraphModel>
      <root>
        <mxCell id="0" />
        <mxCell id="1" parent="0" />
      </root>
    </mxGraphModel>
  </diagram>
</mxfile>
